<svg xmlns="http://www.w3.org/2000/svg" width="24" height="24" viewBox="0 0 24 24" fill="none" stroke="#f9f9f9" stroke-width="2" stroke-linecap="round" stroke-linejoin="round" style="width: 100%; height: 100%;">
  <path d="M12 1C6.48 1 2 5.48 2 11c0 4.41 2.87 8.15 6.84 9.5.5.09.68-.21.68-.48v-1.71c-2.78.61-3.37-1.36-3.37-1.36-.45-1.14-1.1-1.44-1.1-1.44-.9-.62.07-.61.07-.61 1 .07 1.53 1.03 1.53 1.03.89 1.53 2.34 1.09 2.91.83.09-.65.35-1.09.63-1.34-2.22-.25-4.56-1.12-4.56-4.95 0-1.09.39-1.98 1.02-2.67-.1-.26-.45-1.3.1-2.7 0 0 .84-.27 2.75 1.02A9.64 9.64 0 0 1 12 5.82c.85.004 1.71.114 2.52.33 1.9-1.29 2.75-1.02 2.75-1.02.55 1.4.2 2.44.1 2.7.64.69 1.02 1.58 1.02 2.67 0 3.84-2.35 4.7-4.58 4.94.36.31.68.91.68 1.84v2.73c0 .27.18.58.68.48A10 10 0 0 0 22 11c0-5.52-4.48-10-10-10z"></path>
</svg>
