<?xml version="1.0" encoding="UTF-8"?>
<svg version="1.1" xmlns="http://www.w3.org/2000/svg" width="40" height="40" viewBox="0 0 400 400">
<path d="M0 0 C132 0 264 0 400 0 C400 132 400 264 400 400 C268 400 136 400 0 400 C0 268 0 136 0 0 Z " fill="#001E2B" transform="translate(0,0)"/>
<path d="M0 0 C0.66 0 1.32 0 2 0 C3.33764648 1.5378418 3.33764648 1.5378418 4.87109375 3.69921875 C5.43973145 4.4895752 6.00836914 5.27993164 6.59423828 6.09423828 C7.20251465 6.95001465 7.81079102 7.80579102 8.4375 8.6875 C12.64544613 14.51695548 16.88139948 20.22066489 21.625 25.625 C38.93155314 45.55713357 52.31369342 68.80725296 60.375 93.9375 C60.61379883 94.68177246 60.85259766 95.42604492 61.09863281 96.19287109 C64.33094948 106.77625236 65.34971201 117.03050103 65.31567383 128.05004883 C65.3125299 130.16736219 65.33600407 132.28325031 65.36132812 134.40039062 C65.42200063 147.28969778 63.56249023 159.7835071 59.3125 172 C59.05758789 172.74290283 58.80267578 173.48580566 58.54003906 174.2512207 C52.06888928 192.45664478 41.61207457 208.4561464 29 223 C28.2471875 223.87527344 27.494375 224.75054687 26.71875 225.65234375 C21.34819302 231.76778962 15.79440448 237.47039701 9 242 C8.52152792 244.45816691 8.23129418 246.71236679 8.05078125 249.1953125 C7.98843796 249.90275604 7.92609467 250.61019958 7.86186218 251.33908081 C7.66563641 253.600162 7.48886171 255.86229122 7.3125 258.125 C7.18291787 259.65766061 7.05207404 261.1902151 6.91992188 262.72265625 C6.59862498 266.48069587 6.29476357 270.23978997 6 274 C2.7 274 -0.6 274 -4 274 C-4.03327393 273.07775635 -4.06654785 272.1555127 -4.10083008 271.20532227 C-4.2511648 267.7397915 -4.44872294 264.2834159 -4.67749023 260.82250977 C-4.76647454 259.33294794 -4.83722933 257.84216886 -4.88842773 256.35083008 C-5.1483701 247.06181149 -5.1483701 247.06181149 -9.46386719 239.07519531 C-12.21545404 236.83434384 -15.01354784 234.90990558 -18 233 C-38.21597458 215.2238431 -53.06680701 188.83264293 -60 163 C-60.26707764 162.07453369 -60.53415527 161.14906738 -60.80932617 160.19555664 C-63.07591386 151.62345444 -63.43335706 143.52441765 -63.33618164 134.72485352 C-63.31249124 132.43665397 -63.31565984 130.14962043 -63.32226562 127.86132812 C-63.24732777 86.75513755 -41.28371526 51.91991154 -15.96289062 21.16894531 C-11.55475085 15.77920449 -7.41979477 10.22359163 -3.42626953 4.52026367 C-2.33019844 2.97970966 -1.17092783 1.48445496 0 0 Z " fill="#00EB63" transform="translate(199,63)"/>
<path d="M0 0 C0.66 0 1.32 0 2 0 C2.04789169 1.11039139 2.09578339 2.22078278 2.14512634 3.36482239 C2.60008087 13.91042215 3.05598907 24.45598033 3.51279354 35.00150013 C3.74752175 40.42098328 3.98193224 45.84047975 4.21557617 51.26000977 C4.44173239 56.50556987 4.66877599 61.75109092 4.89639473 66.99658775 C4.98240303 68.98207972 5.06810969 70.96758479 5.15348625 72.95310402 C5.60908819 83.5437339 6.08983161 94.13166046 6.66991329 104.7162981 C7.03603227 111.43532957 7.28483945 118.14574447 7.375 124.875 C7.41238281 125.98746094 7.44976562 127.09992188 7.48828125 128.24609375 C7.57293847 136.06277675 7.57293847 136.06277675 5.86035156 138.86425781 C4.4765625 140.2578125 4.4765625 140.2578125 2 142 C-0.91769704 140.69206684 -3.13319585 139.62521398 -5 137 C-5.27027037 134.1683476 -5.34312541 131.58277438 -5.2734375 128.75390625 C-5.26226898 127.88278702 -5.25110046 127.01166779 -5.23959351 126.114151 C-5.01996129 113.42585739 -4.34680533 100.74729934 -3.72851944 88.0734787 C-3.4461127 82.24641103 -3.175925 76.41875354 -2.90405464 70.59118652 C-2.83520061 69.11622368 -2.76618381 67.64126842 -2.69700432 66.1663208 C-1.99719714 51.23861389 -1.38565558 36.30813287 -0.8125 21.375 C-0.74872162 19.7180159 -0.74872162 19.7180159 -0.68365479 18.02755737 C-0.45280402 12.0184813 -0.22485436 6.00930335 0 0 Z " fill="#00242C" transform="translate(199,160)"/>
</svg>
